<svg width="24" height="24" viewBox="0 0 24 24" fill="none" xmlns="http://www.w3.org/2000/svg">
<path d="M20.75 9.5C20.75 9.66576 20.6842 9.82473 20.567 9.94194C20.4498 10.0592 20.2908 10.125 20.125 10.125H18.875V11.375C18.875 11.5408 18.8092 11.6997 18.692 11.8169C18.5748 11.9342 18.4158 12 18.25 12C18.0843 12 17.9253 11.9342 17.8081 11.8169C17.6909 11.6997 17.625 11.5408 17.625 11.375V10.125H16.375C16.2093 10.125 16.0503 10.0592 15.9331 9.94194C15.8159 9.82473 15.75 9.66576 15.75 9.5C15.75 9.33424 15.8159 9.17527 15.9331 9.05806C16.0503 8.94085 16.2093 8.875 16.375 8.875H17.625V7.625C17.625 7.45924 17.6909 7.30027 17.8081 7.18306C17.9253 7.06585 18.0843 7 18.25 7C18.4158 7 18.5748 7.06585 18.692 7.18306C18.8092 7.30027 18.875 7.45924 18.875 7.625V8.875H20.125C20.2908 8.875 20.4498 8.94085 20.567 9.05806C20.6842 9.17527 20.75 9.33424 20.75 9.5ZM13.25 6.375H13.875V7C13.875 7.16576 13.9409 7.32473 14.0581 7.44194C14.1753 7.55915 14.3343 7.625 14.5 7.625C14.6658 7.625 14.8248 7.55915 14.942 7.44194C15.0592 7.32473 15.125 7.16576 15.125 7V6.375H15.75C15.9158 6.375 16.0748 6.30915 16.192 6.19194C16.3092 6.07473 16.375 5.91576 16.375 5.75C16.375 5.58424 16.3092 5.42527 16.192 5.30806C16.0748 5.19085 15.9158 5.125 15.75 5.125H15.125V4.5C15.125 4.33424 15.0592 4.17527 14.942 4.05806C14.8248 3.94085 14.6658 3.875 14.5 3.875C14.3343 3.875 14.1753 3.94085 14.0581 4.05806C13.9409 4.17527 13.875 4.33424 13.875 4.5V5.125H13.25C13.0843 5.125 12.9253 5.19085 12.8081 5.30806C12.6909 5.42527 12.625 5.58424 12.625 5.75C12.625 5.91576 12.6909 6.07473 12.8081 6.19194C12.9253 6.30915 13.0843 6.375 13.25 6.375ZM18.9352 13.9531C19.0079 14.0378 19.0567 14.1405 19.0763 14.2504C19.096 14.3603 19.0858 14.4735 19.0469 14.5781C18.6132 15.7609 17.8886 16.8153 16.9399 17.6441C15.9913 18.473 14.8491 19.0495 13.6189 19.3205C12.3886 19.5915 11.1099 19.5483 9.90082 19.1948C8.69169 18.8413 7.59108 18.189 6.70056 17.2979C5.81005 16.4069 5.15831 15.3059 4.80551 14.0966C4.4527 12.8873 4.41019 11.6086 4.68191 10.3785C4.95362 9.14838 5.53079 8.00655 6.36017 7.05835C7.18955 6.11015 8.2444 5.38614 9.42738 4.95312C9.53151 4.91499 9.6439 4.90525 9.75303 4.92489C9.86216 4.94453 9.96411 4.99285 10.0484 5.0649C10.1327 5.13695 10.1963 5.23012 10.2327 5.33486C10.2691 5.43961 10.277 5.55215 10.2555 5.66094C10.0365 6.76951 10.0939 7.91496 10.4226 8.99608C10.7513 10.0772 11.3412 11.0607 12.1403 11.8598C12.9393 12.6588 13.9228 13.2487 15.004 13.5775C16.0851 13.9062 17.2305 13.9636 18.3391 13.7445C18.448 13.7232 18.5607 13.7313 18.6654 13.768C18.7702 13.8047 18.8633 13.8686 18.9352 13.9531ZM17.4204 15.1156C17.2805 15.1227 17.1399 15.1266 17 15.1266C14.8456 15.1243 12.78 14.2673 11.2568 12.7437C9.73347 11.2202 8.8769 9.15446 8.87504 7C8.87504 6.86016 8.87504 6.71953 8.88598 6.57969C8.0544 7.05821 7.34416 7.72176 6.81027 8.51892C6.27638 9.31609 5.93319 10.2255 5.80728 11.1766C5.68137 12.1277 5.77612 13.0951 6.08419 14.0037C6.39227 14.9123 6.90539 15.7378 7.58381 16.4162C8.26223 17.0947 9.08772 17.6078 9.99635 17.9158C10.905 18.2239 11.8723 18.3187 12.8234 18.1928C13.7746 18.0668 14.684 17.7237 15.4811 17.1898C16.2783 16.6559 16.9418 15.9456 17.4204 15.1141V15.1156Z" fill="#0F1C14"/>
</svg>
