<svg width="24" height="24" viewBox="0 0 24 24" fill="none" xmlns="http://www.w3.org/2000/svg">
<path d="M18.875 8.62511H16.1344C16.1648 8.59933 16.1961 8.57433 16.2258 8.54699C16.4631 8.33619 16.6543 8.0787 16.7875 7.79062C16.9207 7.50255 16.9931 7.19008 17 6.87277C17.0103 6.52564 16.9495 6.18008 16.8213 5.85729C16.6932 5.53451 16.5005 5.24131 16.255 4.99571C16.0094 4.75011 15.7163 4.55728 15.3936 4.42907C15.0708 4.30085 14.7253 4.23996 14.3781 4.25011C14.0607 4.25695 13.7481 4.32924 13.4598 4.46246C13.1716 4.59568 12.914 4.78696 12.7031 5.02433C12.4113 5.36253 12.1741 5.74421 12 6.15558C11.8259 5.74421 11.5887 5.36253 11.2969 5.02433C11.086 4.78696 10.8284 4.59568 10.5402 4.46246C10.2519 4.32924 9.93932 4.25695 9.62187 4.25011C9.27474 4.23996 8.9292 4.30085 8.60645 4.42907C8.2837 4.55728 7.99057 4.75011 7.74504 4.99571C7.49951 5.24131 7.30677 5.53451 7.17865 5.85729C7.05053 6.18008 6.98974 6.52564 7 6.87277C7.00694 7.19008 7.07929 7.50255 7.2125 7.79062C7.34572 8.0787 7.53695 8.33619 7.77422 8.54699C7.80391 8.57277 7.83516 8.59777 7.86563 8.62511H5.125C4.79348 8.62511 4.47554 8.75681 4.24112 8.99123C4.0067 9.22565 3.875 9.54359 3.875 9.87511V12.3751C3.875 12.7066 4.0067 13.0246 4.24112 13.259C4.47554 13.4934 4.79348 13.6251 5.125 13.6251V18.6251C5.125 18.9566 5.2567 19.2746 5.49112 19.509C5.72554 19.7434 6.04348 19.8751 6.375 19.8751H17.625C17.9565 19.8751 18.2745 19.7434 18.5089 19.509C18.7433 19.2746 18.875 18.9566 18.875 18.6251V13.6251C19.2065 13.6251 19.5245 13.4934 19.7589 13.259C19.9933 13.0246 20.125 12.7066 20.125 12.3751V9.87511C20.125 9.54359 19.9933 9.22565 19.7589 8.99123C19.5245 8.75681 19.2065 8.62511 18.875 8.62511ZM13.6406 5.85246C13.7396 5.74318 13.8601 5.65554 13.9945 5.59504C14.129 5.53454 14.2745 5.50249 14.4219 5.5009H14.4602C14.6329 5.50198 14.8038 5.53753 14.9626 5.60548C15.1215 5.67343 15.2652 5.77241 15.3854 5.89661C15.5055 6.02081 15.5996 6.16774 15.6622 6.32879C15.7248 6.48984 15.7547 6.66176 15.75 6.83449C15.7484 6.98191 15.7164 7.12741 15.6559 7.26185C15.5954 7.3963 15.5077 7.51678 15.3984 7.61574C14.657 8.27199 13.4266 8.50324 12.6641 8.58449C12.7578 7.75715 13.0156 6.5548 13.6406 5.85246ZM8.63359 5.88058C8.87574 5.63847 9.20367 5.50173 9.54609 5.50011H9.58438C9.7318 5.5017 9.87729 5.53376 10.0117 5.59425C10.1462 5.65475 10.2667 5.7424 10.3656 5.85168C11.0211 6.5923 11.2523 7.82043 11.3336 8.5798C10.5742 8.50168 9.34609 8.2673 8.60547 7.61183C8.49619 7.51287 8.40855 7.39239 8.34805 7.25795C8.28755 7.1235 8.2555 6.978 8.25391 6.83058C8.24906 6.65498 8.27994 6.48023 8.34467 6.31693C8.4094 6.15363 8.50663 6.00517 8.63047 5.88058H8.63359ZM5.125 9.87511H11.375V12.3751H5.125V9.87511ZM6.375 13.6251H11.375V18.6251H6.375V13.6251ZM17.625 18.6251H12.625V13.6251H17.625V18.6251ZM18.875 12.3751H12.625V9.87511H18.875V12.3751Z" fill="#0F1C14"/>
</svg>
