<svg width="24" height="24" viewBox="0 0 24 24" fill="none" xmlns="http://www.w3.org/2000/svg">
<path d="M20.75 10.125H19.9062L17.7359 5.24219C17.6377 5.02127 17.4775 4.83358 17.2748 4.70185C17.0721 4.57012 16.8355 4.5 16.5938 4.5H7.40625C7.16448 4.5 6.92791 4.57012 6.72518 4.70185C6.52245 4.83358 6.36228 5.02127 6.26406 5.24219L4.09375 10.125H3.25C3.08424 10.125 2.92527 10.1908 2.80806 10.3081C2.69085 10.4253 2.625 10.5842 2.625 10.75C2.625 10.9158 2.69085 11.0747 2.80806 11.1919C2.92527 11.3092 3.08424 11.375 3.25 11.375H3.875V17.625C3.875 17.9565 4.0067 18.2745 4.24112 18.5089C4.47554 18.7433 4.79348 18.875 5.125 18.875H7C7.33152 18.875 7.64946 18.7433 7.88388 18.5089C8.1183 18.2745 8.25 17.9565 8.25 17.625V16.375H15.75V17.625C15.75 17.9565 15.8817 18.2745 16.1161 18.5089C16.3505 18.7433 16.6685 18.875 17 18.875H18.875C19.2065 18.875 19.5245 18.7433 19.7589 18.5089C19.9933 18.2745 20.125 17.9565 20.125 17.625V11.375H20.75C20.9158 11.375 21.0747 11.3092 21.1919 11.1919C21.3092 11.0747 21.375 10.9158 21.375 10.75C21.375 10.5842 21.3092 10.4253 21.1919 10.3081C21.0747 10.1908 20.9158 10.125 20.75 10.125ZM7.40625 5.75H16.5938L18.5383 10.125H5.46172L7.40625 5.75ZM7 17.625H5.125V16.375H7V17.625ZM17 17.625V16.375H18.875V17.625H17ZM18.875 15.125H5.125V11.375H18.875V15.125ZM6.375 13.25C6.375 13.0842 6.44085 12.9253 6.55806 12.8081C6.67527 12.6908 6.83424 12.625 7 12.625H8.25C8.41576 12.625 8.57473 12.6908 8.69194 12.8081C8.80915 12.9253 8.875 13.0842 8.875 13.25C8.875 13.4158 8.80915 13.5747 8.69194 13.6919C8.57473 13.8092 8.41576 13.875 8.25 13.875H7C6.83424 13.875 6.67527 13.8092 6.55806 13.6919C6.44085 13.5747 6.375 13.4158 6.375 13.25ZM15.125 13.25C15.125 13.0842 15.1908 12.9253 15.3081 12.8081C15.4253 12.6908 15.5842 12.625 15.75 12.625H17C17.1658 12.625 17.3247 12.6908 17.4419 12.8081C17.5592 12.9253 17.625 13.0842 17.625 13.25C17.625 13.4158 17.5592 13.5747 17.4419 13.6919C17.3247 13.8092 17.1658 13.875 17 13.875H15.75C15.5842 13.875 15.4253 13.8092 15.3081 13.6919C15.1908 13.5747 15.125 13.4158 15.125 13.25Z" fill="#0F1C14"/>
</svg>
