<svg width="24" height="24" viewBox="0 0 24 24" fill="none" xmlns="http://www.w3.org/2000/svg">
<path d="M8.49922 15.625C8.5649 15.6744 8.63968 15.7103 8.71926 15.7307C8.79885 15.7512 8.88169 15.7557 8.96303 15.7441C9.04437 15.7325 9.12263 15.705 9.19332 15.6631C9.26401 15.6212 9.32575 15.5658 9.375 15.5C9.75341 14.9955 10.2441 14.5859 10.8082 14.3039C11.3723 14.0218 11.9943 13.875 12.625 13.875C13.2557 13.875 13.8777 14.0218 14.4418 14.3039C15.0059 14.5859 15.4966 14.9955 15.875 15.5C15.9242 15.5657 15.9859 15.621 16.0566 15.6628C16.1272 15.7046 16.2054 15.7321 16.2866 15.7437C16.3679 15.7553 16.4506 15.7508 16.5301 15.7304C16.6096 15.7101 16.6843 15.6742 16.75 15.625C16.8157 15.5758 16.871 15.5141 16.9128 15.4434C16.9546 15.3728 16.9821 15.2946 16.9937 15.2134C17.0053 15.1321 17.0008 15.0494 16.9804 14.9699C16.9601 14.8904 16.9242 14.8157 16.875 14.75C16.3216 14.008 15.5836 13.4238 14.7344 13.0555C15.1998 12.6306 15.5258 12.0749 15.6697 11.4614C15.8137 10.8479 15.7688 10.2052 15.5409 9.61767C15.313 9.03014 14.9129 8.52523 14.3929 8.1692C13.873 7.81316 13.2575 7.62265 12.6273 7.62265C11.9972 7.62265 11.3817 7.81316 10.8618 8.1692C10.3418 8.52523 9.94166 9.03014 9.71379 9.61767C9.48593 10.2052 9.44102 10.8479 9.58495 11.4614C9.72888 12.0749 10.0549 12.6306 10.5203 13.0555C9.6694 13.4231 8.92972 14.0074 8.375 14.75C8.27546 14.8825 8.23263 15.0491 8.25592 15.2132C8.27922 15.3773 8.36673 15.5254 8.49922 15.625ZM10.75 10.75C10.75 10.3792 10.86 10.0166 11.066 9.70831C11.272 9.39996 11.5649 9.15964 11.9075 9.01773C12.2501 8.87581 12.6271 8.83868 12.9908 8.91103C13.3545 8.98337 13.6886 9.16195 13.9508 9.42417C14.213 9.6864 14.3916 10.0205 14.464 10.3842C14.5363 10.7479 14.4992 11.1249 14.3573 11.4675C14.2154 11.8101 13.975 12.103 13.6667 12.309C13.3584 12.515 12.9958 12.625 12.625 12.625C12.1277 12.625 11.6508 12.4275 11.2992 12.0758C10.9475 11.7242 10.75 11.2473 10.75 10.75ZM18.25 3.875H7C6.66848 3.875 6.35054 4.0067 6.11612 4.24112C5.8817 4.47554 5.75 4.79348 5.75 5.125V7H4.5C4.33424 7 4.17527 7.06585 4.05806 7.18306C3.94085 7.30027 3.875 7.45924 3.875 7.625C3.875 7.79076 3.94085 7.94973 4.05806 8.06694C4.17527 8.18415 4.33424 8.25 4.5 8.25H5.75V11.375H4.5C4.33424 11.375 4.17527 11.4408 4.05806 11.5581C3.94085 11.6753 3.875 11.8342 3.875 12C3.875 12.1658 3.94085 12.3247 4.05806 12.4419C4.17527 12.5592 4.33424 12.625 4.5 12.625H5.75V15.75H4.5C4.33424 15.75 4.17527 15.8158 4.05806 15.9331C3.94085 16.0503 3.875 16.2092 3.875 16.375C3.875 16.5408 3.94085 16.6997 4.05806 16.8169C4.17527 16.9342 4.33424 17 4.5 17H5.75V18.875C5.75 19.2065 5.8817 19.5245 6.11612 19.7589C6.35054 19.9933 6.66848 20.125 7 20.125H18.25C18.5815 20.125 18.8995 19.9933 19.1339 19.7589C19.3683 19.5245 19.5 19.2065 19.5 18.875V5.125C19.5 4.79348 19.3683 4.47554 19.1339 4.24112C18.8995 4.0067 18.5815 3.875 18.25 3.875ZM18.25 18.875H7V5.125H18.25V18.875Z" fill="#0F1C14"/>
</svg>
