<svg width="250" height="250" viewBox="0 0 250 250" fill="none" xmlns="http://www.w3.org/2000/svg">
<g clip-path="url(#clip0_2616_19057)">
<g clip-path="url(#clip1_2616_19057)">
<path d="M43.9883 122.375L117.727 99.4932L134.032 177.65L60.2936 200.531L43.9883 122.375Z" fill="#C18C01"/>
<path d="M128.295 203.879L60.2936 200.531L43.9883 122.375L111.989 125.732L128.295 203.889V203.879Z" fill="url(#paint0_linear_2616_19057)"/>
<path d="M202.033 181.008L134.032 177.65L117.727 99.4932L185.728 102.851L202.033 181.008Z" fill="#B65200"/>
<path d="M111.75 125.732L185.728 102.851L202.033 181.007L128.055 203.889L111.75 125.732Z" fill="url(#paint1_linear_2616_19057)"/>
<path d="M130.972 250.006C173.235 250.006 207.501 244.714 207.501 238.185C207.501 231.657 173.235 226.365 130.972 226.365C88.7095 226.365 54.4434 231.657 54.4434 238.185C54.4434 244.714 88.7095 250.006 130.972 250.006Z" fill="url(#paint2_radial_2616_19057)"/>
<path d="M111.594 125.836L43.8536 122.375L42.5 154.446L110.241 157.897L111.594 125.826V125.836Z" fill="url(#paint3_linear_2616_19057)"/>
<path d="M199.503 131.46L125.14 154.57L111.594 125.701L185.728 102.84L199.503 131.45V131.46Z" fill="url(#paint4_linear_2616_19057)"/>
<path d="M84.9499 61.2773C87.7716 74.9792 90.0622 77.495 102.546 80.593C90.0622 83.6909 87.7716 86.1964 84.9499 99.9086C82.1282 86.2068 79.8376 83.6909 67.3535 80.593C79.8376 77.495 82.1282 74.9896 84.9499 61.2773Z" fill="#E6D200"/>
<path d="M114.005 87.0049C115.848 95.9662 117.348 97.6087 125.511 99.6359C117.348 101.663 115.848 103.306 114.005 112.267C112.162 103.306 110.663 101.663 102.5 99.6359C110.663 97.6087 112.162 95.9662 114.005 87.0049Z" fill="#E6D200"/>
<path d="M96.0078 46.7854C102.984 45.0493 104.254 43.6459 105.837 36.0049C107.409 43.6563 108.69 45.0597 115.666 46.7854C108.69 48.5216 107.419 49.925 105.847 57.566C104.275 49.9146 102.994 48.5112 96.0182 46.7854H96.0078Z" fill="#E6D200"/>
<path d="M125.884 238.287C168.584 238.287 203.199 232.757 203.199 225.935C203.199 219.114 168.584 213.584 125.884 213.584C83.1837 213.584 48.5684 219.114 48.5684 225.935C48.5684 232.757 83.1837 238.287 125.884 238.287Z" fill="url(#paint5_radial_2616_19057)"/>
</g>
</g>
<defs>
<linearGradient id="paint0_linear_2616_19057" x1="41.8746" y1="149.913" x2="128.283" y2="175.79" gradientUnits="userSpaceOnUse">
<stop stop-color="#E6D200"/>
<stop offset="0.04" stop-color="#DFC600"/>
<stop offset="0.12" stop-color="#D4B000"/>
<stop offset="0.22" stop-color="#CB9F00"/>
<stop offset="0.34" stop-color="#C59300"/>
<stop offset="0.52" stop-color="#C18C00"/>
<stop offset="1" stop-color="#C18B00"/>
</linearGradient>
<linearGradient id="paint1_linear_2616_19057" x1="106.981" y1="137.604" x2="204.421" y2="168.463" gradientUnits="userSpaceOnUse">
<stop stop-color="#E6D200"/>
<stop offset="0.04" stop-color="#DFC600"/>
<stop offset="0.12" stop-color="#D4B000"/>
<stop offset="0.22" stop-color="#CB9F00"/>
<stop offset="0.34" stop-color="#C59300"/>
<stop offset="0.52" stop-color="#C18C00"/>
<stop offset="1" stop-color="#C18B00"/>
</linearGradient>
<radialGradient id="paint2_radial_2616_19057" cx="0" cy="0" r="1" gradientUnits="userSpaceOnUse" gradientTransform="translate(128.527 261.377) rotate(90) scale(15.1573 95.3016)">
<stop stop-color="#B8B7AF" stop-opacity="0.8"/>
<stop offset="0.34" stop-color="#E1DFD8"/>
<stop offset="0.78" stop-color="#F6F4EA" stop-opacity="0"/>
</radialGradient>
<linearGradient id="paint3_linear_2616_19057" x1="68.8217" y1="97.4139" x2="85.0471" y2="181.952" gradientUnits="userSpaceOnUse">
<stop stop-color="#C18B00"/>
<stop offset="1" stop-color="#B65200"/>
</linearGradient>
<linearGradient id="paint4_linear_2616_19057" x1="135.083" y1="51.9627" x2="175.521" y2="203.826" gradientUnits="userSpaceOnUse">
<stop stop-color="#C18B00"/>
<stop offset="1" stop-color="#B65200"/>
</linearGradient>
<radialGradient id="paint5_radial_2616_19057" cx="0" cy="0" r="1" gradientUnits="userSpaceOnUse" gradientTransform="translate(127.932 224.314) rotate(90) scale(15.883 96.5273)">
<stop stop-color="#B9B8B0" stop-opacity="0.8"/>
<stop offset="0.34" stop-color="#E2E0D9"/>
<stop offset="0.78" stop-color="#F7F5EB" stop-opacity="0"/>
</radialGradient>
<clipPath id="clip0_2616_19057">
<rect width="250" height="250.001" fill="white" transform="translate(0 0.00488281)"/>
</clipPath>
<clipPath id="clip1_2616_19057">
<rect width="165" height="214" fill="white" transform="translate(42.5 36.0049)"/>
</clipPath>
</defs>
</svg>
